<svg width="16" height="16" viewBox="0 0 16 16" fill="none" xmlns="http://www.w3.org/2000/svg">
<path d="M11.4288 2.85709C11.9021 2.3837 12.6697 2.3837 13.143 2.85709C13.6164 3.33047 13.6164 4.09798 13.143 4.57137L4.57162 13.1428C4.09824 13.6162 3.33072 13.6162 2.85734 13.1428C2.38395 12.6694 2.38395 11.9019 2.85734 11.4285L11.4288 2.85709Z" fill="red"/>
<path d="M2.85724 4.57128C2.38385 4.09789 2.38385 3.33038 2.85724 2.85699C3.33062 2.38361 4.09813 2.38361 4.57152 2.85699L13.1429 11.4284C13.6163 11.9018 13.6163 12.6693 13.1429 13.1427C12.6696 13.6161 11.902 13.6161 11.4287 13.1427L2.85724 4.57128Z" fill="red"/>
</svg>
